<?xml version="1.0" encoding="utf-8"?>
<!-- Generator: Adobe Illustrator 19.2.1, SVG Export Plug-In . SVG Version: 6.00 Build 0)  -->
<svg version="1.1" id="Layer_1" xmlns="http://www.w3.org/2000/svg" xmlns:xlink="http://www.w3.org/1999/xlink" x="0px" y="0px"
	 viewBox="0 0 67.7 72" style="enable-background:new 0 0 67.7 72;" xml:space="preserve">
<style type="text/css">
	.st0{fill:#00BC2F;}
	.st1{fill:#5F6360;}
</style>
<g>
	<path class="st0" d="M56.8,30.7c-2.1-3.8-5.7-6.6-10-7.7c1.3-2.3,1.9-4.8,1.9-7.6C48.8,7,41.8,0,33.2,0c-6.9,0-12.7,4.5-14.8,10.8
		c-5.5,2.3-9.3,7.6-9.5,13.7C3.7,27,0,32.3,0,38.6c0,8.6,7,15.6,15.6,15.6c6.1,0,11.3-3.5,13.9-8.6c1.9,3.5,5.2,6.3,9,7.6
		c2.6,4.8,7.8,8.1,13.6,8.1c8.6,0,15.6-7,15.6-15.6C67.7,38.6,63.1,32.7,56.8,30.7z"/>
	<path class="st1" d="M52.1,41.3c-2.3,0-4.2,1.8-4.2,4.2c0,0.5,0.1,1,0.2,1.5L34.9,60.2c0,0,0-4.5,0-8.8c0-2.5,0.8-3.4,2.6-5.3
		c1.8-1.8,4-4,4-4c0.5,0.1,0.9,0.2,1.5,0.2c2.3,0,4.2-1.8,4.2-4.2c0-2.3-1.8-4.2-4.2-4.2c-2.3,0-4.2,1.8-4.2,4.2
		c0,0.5,0.1,1,0.2,1.5l-4.1,4.2V19.5c1.5-0.7,2.4-2.2,2.4-3.8c0-2.3-1.8-4.2-4.2-4.2c-2.3,0-4.2,1.8-4.2,4.2c0,1.7,1,3.2,2.4,3.8v14
		h-2.5c-1.5,0-2.6-1.5-2.6-3.3v-1.3c1.5-0.7,2.4-2.2,2.4-3.8c0-2.3-1.8-4.2-4.2-4.2S20,22.7,20,25.1c0,1.7,1,3.2,2.4,3.8v1.3
		c0,3.8,3,6.8,6.2,6.8c2.1,0,2.5,0.2,2.5,2.6c0,1.6,0,12.4,0,12.4L19.6,40.1c0.1-0.5,0.2-0.9,0.2-1.5c0-2.3-1.8-4.2-4.2-4.2
		c-2.3,0-4.2,1.8-4.2,4.2c0,2.3,1.8,4.2,4.2,4.2c0.5,0,1-0.1,1.5-0.2c0,0,9.8,9.8,11.6,11.6c1.7,1.7,2.9,3.4,2.9,7.2
		c0,3.7,0,10.6,0,10.6H35c0,0,0-2.6,0-4.5c0-1.7,0.7-3,2.6-4.9s13-13,13-13c0.5,0.1,0.9,0.2,1.5,0.2c2.3,0,4.2-1.8,4.2-4.2
		C56.2,43.3,54.4,41.3,52.1,41.3z"/>
</g>
</svg>
